<?xml version="1.0" encoding="utf-8"?>
<!-- Generator: Adobe Illustrator 16.0.0, SVG Export Plug-In . SVG Version: 6.00 Build 0)  -->
<!DOCTYPE svg PUBLIC "-//W3C//DTD SVG 1.1 Tiny//EN" "http://www.w3.org/Graphics/SVG/1.1/DTD/svg11-tiny.dtd">
<svg version="1.1" baseProfile="tiny" id="Layer_1" xmlns="http://www.w3.org/2000/svg" xmlns:xlink="http://www.w3.org/1999/xlink"
	 x="0px" y="0px" width="24px" height="24px" viewBox="0 0 24 24" xml:space="preserve">
<g>
	<path fill="#050007" d="M19.275,19.021H4.725c-0.402,0-0.727,0.32-0.727,0.715c0,0.395,0.325,0.715,0.727,0.715h14.551
		c0.402,0,0.727-0.321,0.727-0.715C20.002,19.341,19.677,19.021,19.275,19.021z M21.694,4.897c-0.424-0.425-0.998-0.541-1.28-0.259
		l-3.127,3.127c-0.282,0.282-0.166,0.856,0.258,1.28c0.424,0.424,0.999,0.541,1.281,0.259l3.127-3.127
		C22.235,5.895,22.118,5.32,21.694,4.897z M7.646,6.177h8.94c-0.212-1.349-1.068-2.488-2.252-3.134
		c0.012-0.014,0.03-0.021,0.04-0.037l1.403-2.222c0.113-0.178,0.046-0.407-0.15-0.51c-0.194-0.103-0.444-0.042-0.557,0.137
		l-1.402,2.223c-0.021,0.031-0.028,0.065-0.037,0.099c-0.474-0.163-0.983-0.259-1.516-0.259c-0.539,0-1.053,0.097-1.531,0.263
		c-0.01-0.036-0.018-0.071-0.038-0.103L9.145,0.411C9.032,0.231,8.783,0.171,8.589,0.274c-0.196,0.104-0.263,0.333-0.15,0.51
		l1.403,2.222c0.011,0.018,0.031,0.026,0.046,0.042C8.708,3.695,7.856,4.832,7.646,6.177z M13.898,3.77
		c0.328,0,0.593,0.266,0.593,0.594c0,0.329-0.265,0.594-0.593,0.594c-0.329,0-0.594-0.266-0.594-0.594
		C13.304,4.036,13.57,3.77,13.898,3.77z M10.292,3.77c0.328,0,0.593,0.266,0.593,0.594c0,0.329-0.265,0.594-0.593,0.594
		c-0.328,0-0.594-0.266-0.594-0.594C9.698,4.036,9.964,3.77,10.292,3.77z M6.519,7.35C6.093,6.923,5.512,6.809,5.224,7.098
		l-3.171,3.171c-0.289,0.288-0.175,0.869,0.251,1.296c0.429,0.428,1.01,0.542,1.298,0.253l3.171-3.171
		C7.062,8.358,6.947,7.778,6.519,7.35z M7.644,21.23c-0.785,0-1.421,0.62-1.421,1.385S6.859,24,7.644,24
		c0.785,0,1.422-0.62,1.422-1.385S8.429,21.23,7.644,21.23z M13.97,18.084c0.599,0,1.088-0.324,1.088-0.722v-2.277
		c1.033-0.112,1.492-0.735,1.492-1.81c0-1.191,0-6.304,0-6.304H7.687c0,0-0.009,4.997-0.009,6.28c0,1.154,0.462,1.722,1.469,1.828
		v2.283c0,0.398,0.488,0.722,1.088,0.722c0.599,0,1.088-0.324,1.088-0.722v-2.261c0.51,0.002,1.046,0.003,1.559,0.005v2.256
		C12.882,17.76,13.37,18.084,13.97,18.084z M16.361,21.23c-0.785,0-1.421,0.62-1.421,1.385S15.576,24,16.361,24
		c0.785,0,1.421-0.62,1.421-1.385S17.146,21.23,16.361,21.23z"/>
</g>
</svg>
